<svg width="1045" height="204" viewBox="0 0 1045 204" fill="none" xmlns="http://www.w3.org/2000/svg">
<path d="M634.292 160.147L644.072 195.599H615.954L607.886 165.77C598.839 133.985 592.727 128.117 573.167 128.117H533.558V195.599H505.93V24.4499H576.834C608.619 24.4499 639.182 43.2763 639.182 76.0391C639.182 96.8215 625.734 109.78 606.908 116.381C622.311 125.183 628.913 140.831 634.292 160.147ZM533.558 49.3887V103.178H574.145C596.15 103.178 610.331 93.154 610.331 76.0391C610.331 58.4352 595.172 49.3887 576.59 49.3887H533.558Z" fill="#EEE3CE"/>
<path d="M772.126 172.127H783.373V195.599H768.214C751.099 195.599 742.052 186.064 741.319 172.372C734.717 191.198 717.847 200 698.043 200C671.392 200 648.654 185.819 648.654 154.768C648.654 125.183 670.17 112.225 702.199 112.225H712.957C733.006 112.225 739.118 106.846 739.118 98.044C739.118 87.2861 728.361 80.4401 712.713 80.4401C694.375 80.4401 682.395 89.4865 680.683 104.645H653.788C655.744 76.7726 673.593 57.2127 712.713 57.2127C753.055 57.2127 766.747 77.9951 766.747 106.357V165.526C766.747 169.927 768.458 172.127 772.126 172.127ZM739.852 133.007V117.604H739.607C737.162 129.095 725.427 135.697 706.6 135.697H702.688C683.128 135.697 676.771 144.254 676.771 154.768C676.771 165.77 684.106 176.528 702.444 176.528C723.471 176.528 739.852 163.325 739.852 133.007Z" fill="#EEE3CE"/>
<path d="M866.703 84.5966H830.273V157.946C830.273 166.993 835.896 172.127 843.965 172.127H866.703V195.599H841.52C816.581 195.599 803.378 184.841 803.378 159.658V84.5966H781.373V61.1247H803.378V24.4499H830.273V61.1247H866.703V84.5966Z" fill="#EEE3CE"/>
<path d="M1000.05 116.137V137.897H898.579C901.758 161.858 916.428 176.284 936.477 176.284C952.125 176.284 964.839 167.482 969.484 154.279H998.824C993.2 180.44 968.995 199.511 936.477 199.511C896.868 199.511 870.218 171.149 870.218 128.362C870.218 83.8631 897.357 57.2127 936.477 57.2127C973.152 57.2127 1000.05 82.3961 1000.05 116.137ZM936.477 80.4401C916.183 80.4401 902.247 94.8655 898.824 113.936H972.907C969.973 94.132 956.281 80.4401 936.477 80.4401Z" fill="#EEE3CE"/>
<path d="M1017.37 195.599V0H1044.27V195.599H1017.37Z" fill="#EEE3CE"/>
<path fill-rule="evenodd" clip-rule="evenodd" d="M384.6 72.626C389.874 79.2233 408.766 81.5039 409.933 86.9199C412.343 98.0984 399.205 123.766 383.383 124.914C371.636 124.85 360.27 124.914 341.191 124.914C306.232 124.914 289.89 154.297 281.078 171.22C298.746 171.22 318.592 191.048 318.856 203.095H231.808C213.706 202.408 204.336 191.827 194.584 182.419C192.119 180.041 189.693 177.7 187.192 175.558C173.216 164.085 158.864 154.297 141.987 154.297C122.737 154.297 110.871 163.476 104.542 171.22C122.21 171.508 143.682 190.474 144.472 203.095C144.472 203.095 26.6969 203.095 25.4708 203.095C-7.63622 203.095 1.02081 140.278 1.02081 140.278C8.14063 65.7002 60.8802 12.6356 123.377 12.6356C139.726 12.6356 151.592 15.7908 163.987 19.8065C173.158 23.0223 181.307 26.9018 189.289 30.7022C209.074 40.1222 227.839 49.0567 258.654 46.1954C269.941 44.5667 279.669 41.5154 288.979 38.5948C300.986 34.8286 312.299 31.2799 325.369 31.2799C354.628 32.5329 374.126 58.6925 384.6 72.626C386.115 74.6408 383.235 70.923 384.6 72.626ZM361.556 74.1049C361.556 70.1669 341.648 52.6305 325.369 52.6305C309.091 52.6305 288.979 61.087 288.979 61.087C274.917 66.7865 262.122 70.4076 241.336 70.4076C220.549 70.4076 203.452 63.3366 193.119 58.6756C174.787 49.4697 147.256 36.6394 122.39 36.6394C36.7776 38.9795 20.5389 138.822 25.4708 140.278C32.1581 142.252 57.8728 86.9199 122.39 86.9199C149.475 86.9199 179.273 99.9544 179.273 99.9544C179.273 99.9544 209.866 116.101 232.88 116.101C263.628 115.804 282.147 99.8311 294.62 90.9236C305.525 83.6428 315.027 77.0559 330.646 75.8801C341.191 75.0864 361.556 78.043 361.556 74.1049Z" fill="#EEE3CE"/>
</svg>
