<svg width="800" height="800" viewBox="0 0 800 800" fill="none" xmlns="http://www.w3.org/2000/svg">
<rect width="800" height="800" fill="#023A2E"/>
<path fill-rule="evenodd" clip-rule="evenodd" d="M641.122 352.796C648.207 361.633 673.586 364.688 675.154 371.943C678.391 386.917 660.742 421.3 639.487 422.837C623.707 422.752 608.438 422.837 582.808 422.837C535.845 422.837 513.891 462.198 502.053 484.867C525.788 484.867 552.449 511.427 552.804 527.564H435.865C411.547 526.644 398.961 512.47 385.86 499.868C382.548 496.682 379.289 493.547 375.929 490.678C357.154 475.309 337.875 462.198 315.203 462.198C289.343 462.198 273.402 474.493 264.9 484.867C288.635 485.252 317.479 510.658 318.541 527.564C318.541 527.564 160.325 527.564 158.678 527.564C114.203 527.564 125.832 443.418 125.832 443.418C135.397 343.518 206.246 272.436 290.202 272.436C312.165 272.436 328.106 276.662 344.756 282.042C357.077 286.349 368.024 291.546 378.747 296.637C405.325 309.255 430.534 321.224 471.93 317.391C487.092 315.209 500.16 311.122 512.668 307.209C528.798 302.164 543.995 297.411 561.553 297.411C600.859 299.089 627.052 334.131 641.122 352.796C643.157 355.494 639.288 350.514 641.122 352.796ZM610.165 354.777C610.165 349.502 583.421 326.011 561.553 326.011C539.685 326.011 512.668 337.339 512.668 337.339C493.777 344.973 476.589 349.824 448.665 349.824C420.741 349.824 397.772 340.352 383.891 334.108C359.265 321.777 322.281 304.59 288.876 304.59C173.867 307.725 152.052 441.467 158.678 443.418C167.661 446.063 202.206 371.943 288.876 371.943C325.261 371.943 365.291 389.403 365.291 389.403C365.291 389.403 406.389 411.032 437.305 411.032C478.611 410.635 503.489 389.238 520.246 377.306C534.895 367.553 547.659 358.73 568.642 357.155C582.808 356.091 610.165 360.052 610.165 354.777Z" fill="#DCD5BD"/>
</svg>
